<?xml version="1.0"?>
<svg xmlns:rdf="http://www.w3.org/1999/02/22-rdf-syntax-ns#" xmlns="http://www.w3.org/2000/svg" xmlns:cc="http://creativecommons.org/ns#" xmlns:dc="http://purl.org/dc/elements/1.1/" xmlns:svg="http://www.w3.org/2000/svg" id="svg4342" viewBox="0 0 101.7 146.59" version="1.1">
  <title id="title4491">Ebook Icon</title>
  <g id="layer1" transform="translate(-192.47 -476.82)">
    <g id="g3140" transform="matrix(2.2509 -.0066565 .0066565 2.2509 -1217.2 -503.17)">
      <rect id="rect3136" style="color:#000000" rx="1.5" ry="1.5" height="65" width="45" y="437.36" x="625"/>
      <rect id="rect3138" style="color:#000000" rx=".5" ry=".5" height="50" width="35" y="442.36" x="630" fill="#fff"/>
    </g>
    <path id="path3144" d="m213.92 501.81 59.648-0.1764" stroke="#ccc" stroke-width="1px" fill="none"/>
    <path id="path3146" d="m213.93 506.31 59.648-0.17639" stroke="#ccc" stroke-width="1px" fill="none"/>
    <path id="path3148" d="m213.95 510.81 59.648-0.17639" stroke="#ccc" stroke-width="1px" fill="none"/>
    <path id="path3150" d="m213.96 515.31 59.648-0.1764" stroke="#ccc" stroke-width="1px" fill="none"/>
    <path id="path3152" d="m213.97 519.81 59.648-0.1764" stroke="#ccc" stroke-width="1px" fill="none"/>
    <path id="path3154" d="m213.99 524.32 59.648-0.17639" stroke="#ccc" stroke-width="1px" fill="none"/>
    <path id="path3156" d="m214 528.82 59.648-0.17639" stroke="#ccc" stroke-width="1px" fill="none"/>
    <path id="path3158" d="m214.01 533.32 59.648-0.1764" stroke="#ccc" stroke-width="1px" fill="none"/>
    <path id="path3160" d="m214.03 537.82 59.648-0.1764" stroke="#ccc" stroke-width="1px" fill="none"/>
    <path id="path3162" d="m214.04 542.32 59.648-0.17639" stroke="#ccc" stroke-width="1px" fill="none"/>
    <path id="path3164" d="m214.05 546.82 59.648-0.17639" stroke="#ccc" stroke-width="1px" fill="none"/>
    <path id="path3166" d="m214.07 551.33 59.648-0.1764" stroke="#ccc" stroke-width="1px" fill="none"/>
    <path id="path3168" d="m214.07 551.33 59.648-0.1764" stroke="#ccc" stroke-width="1px" fill="none"/>
    <path id="path3170" d="m214.08 555.83 59.648-0.1764" stroke="#ccc" stroke-width="1px" fill="none"/>
    <path id="path3172" d="m214.09 560.33 59.648-0.17639" stroke="#ccc" stroke-width="1px" fill="none"/>
    <path id="path3174" d="m214.11 564.83 59.648-0.17639" stroke="#ccc" stroke-width="1px" fill="none"/>
    <path id="path3176" d="m214.12 569.33 59.648-0.1764" stroke="#ccc" stroke-width="1px" fill="none"/>
    <path id="path3178" d="m214.13 573.83 59.648-0.1764" stroke="#ccc" stroke-width="1px" fill="none"/>
    <path id="path3180" d="m214.15 578.34 59.648-0.1764" stroke="#ccc" stroke-width="1px" fill="none"/>
    <path id="path3182" d="m214.16 582.84 59.648-0.17639" stroke="#ccc" stroke-width="1px" fill="none"/>
    <path id="path3184" d="m214.17 587.34 59.648-0.1764" stroke="#ccc" stroke-width="1px" fill="none"/>
    <path id="path3186" d="m214.19 591.84 59.648-0.1764" stroke="#ccc" stroke-width="1px" fill="none"/>
    <rect id="rect3188" style="color:#000000" transform="rotate(-.16944)" rx="1.1254" ry="1.1254" height="22.509" width="19.132" y="500.82" x="213.01" fill="#f00"/>
    <g id="text3209" stroke="#fff" stroke-width=".099957" transform="matrix(1.0004 -.0029586 .0029586 1.0004 -433.39 343.68)" fill="#ff0">
      <path id="path3728" d="m652.27 172.27c0 0.53998 0.39598 0.97196 1.188 1.2959 0.80996 0.32399 1.8899 0.48598 3.2399 0.48598 1.7459 0 2.9879-0.24298 3.7258-0.72897 0.46797-0.30598 0.70196-0.65696 0.70197-1.053-0.00001-0.25199 0.20698-0.45898 0.62098-0.62097 0.43196-0.17999 0.96294-0.26999 1.5929-0.26999 0.62995 0 1.1519 0.09 1.5659 0.26999 0.43196 0.16199 0.64795 0.36898 0.64797 0.62097-0.00002 0.84597-0.66599 1.6109-1.9979 2.2949-1.638 0.82797-3.9238 1.242-6.8577 1.242-2.9879 0-5.2738-0.40498-6.8577-1.215-1.3319-0.68397-1.9979-1.4579-1.9979-2.3219v-5.3188c-0.00001-0.86395 0.65697-1.6289 1.9709-2.2949 1.6379-0.82795 3.9328-1.2419 6.8847-1.242 2.9339 0.00001 5.2198 0.414 6.8577 1.242 1.3319 0.68398 1.9979 1.449 1.9979 2.2949-0.00002 0.86397-0.66599 1.6379-1.9979 2.3219-1.602 0.82797-3.8878 1.242-6.8577 1.242h-4.4278v1.7549m0-3.5368h4.4278c1.3679 0.00001 2.4479-0.15298 3.2399-0.45898 0.79196-0.30598 1.1879-0.73796 1.188-1.2959-0.00001-0.55797-0.40499-0.98995-1.215-1.296-0.79197-0.32397-1.8629-0.48596-3.2129-0.48597-1.368 0.00001-2.4479 0.153-3.2399 0.45898-0.79197 0.30599-1.188 0.73797-1.188 1.2959v1.7819" stroke="#fff" stroke-width=".099957" fill="#ff0"/>
    </g>
  </g>
  <metadata>
    <rdf:RDF>
      <cc:Work>
        <dc:format>image/svg+xml</dc:format>
        <dc:type rdf:resource="http://purl.org/dc/dcmitype/StillImage"/>
        <cc:license rdf:resource="http://creativecommons.org/licenses/publicdomain/"/>
        <dc:publisher>
          <cc:Agent rdf:about="http://openclipart.org/">
            <dc:title>Openclipart</dc:title>
          </cc:Agent>
        </dc:publisher>
        <dc:title>Ebook Icon</dc:title>
        <dc:date>2013-07-02T18:19:02</dc:date>
        <dc:description>Ebook in a tablet frame for use as an icon on a web page</dc:description>
        <dc:source>http://openclipart.org/detail/179942/ebook-icon-by-algotruneman-179942</dc:source>
        <dc:creator>
          <cc:Agent>
            <dc:title>algotruneman</dc:title>
          </cc:Agent>
        </dc:creator>
        <dc:subject>
          <rdf:Bag>
            <rdf:li>book</rdf:li>
            <rdf:li>ebook</rdf:li>
            <rdf:li>icon</rdf:li>
            <rdf:li>reading</rdf:li>
            <rdf:li>tablet</rdf:li>
          </rdf:Bag>
        </dc:subject>
      </cc:Work>
      <cc:License rdf:about="http://creativecommons.org/licenses/publicdomain/">
        <cc:permits rdf:resource="http://creativecommons.org/ns#Reproduction"/>
        <cc:permits rdf:resource="http://creativecommons.org/ns#Distribution"/>
        <cc:permits rdf:resource="http://creativecommons.org/ns#DerivativeWorks"/>
      </cc:License>
    </rdf:RDF>
  </metadata>
</svg>
