<svg xmlns="http://www.w3.org/2000/svg" width="40" height="20" style="vector-effect: non-scaling-stroke;" stroke="null"><rect id="backgroundrect" width="100%" height="100%" x="0" y="0" fill="none" stroke="none"/>
 <g stroke="null" style="" class="currentLayer">
  <title stroke="null">Layer 1</title>
  <path transform="rotate(58.86140060424805 20.52568626403809,9.704929351806639) " stroke="null" d="m25.96974231166576,12.025512611804016 l0.9084065046587588,-1.1602944210915493 l-0.9084065046587588,-1.1602944210915493 l-2.2678219110329496,2.8966851163915015 l-5.444060765778951,-6.953653585742482 l2.2678219110329496,-2.8966851163915015 l-0.9950506552984697,-1.1189992203408956 l-0.821751914964753,1.1189992203408956 l-0.9084065046587588,-1.1602944210915493 l-1.359425845428485,1.7363906952999515 l-0.9084065046587588,-1.1602944210915493 l-0.9084065046587588,1.1602944210915493 l0.9084065046587588,1.1602944210915493 l-1.359425845428485,1.7363906952999515 l0.9084065046587588,1.1602944210915493 l-0.9084065046587588,1.1602944210915493 l0.9084065046587588,1.1602944210915493 l2.2678219110329496,-2.8966851163915015 l5.444060765778951,6.953653585742482 l-2.2678219110329496,2.8966851163915015 l0.9084065046587588,1.1602944210915493 l0.9084065046587588,-1.1602944210915493 l0.9084065046587588,1.1602944210915493 l1.359425845428485,-1.7363906952999515 l0.9084065046587588,1.1602944210915493 l0.9084065046587588,-1.1602944210915493 l-0.9084065046587588,-1.1602944210915493 l1.359425845428485,-1.7363906952999515 l-0.9084065046587588,-1.1602944210915493 z" id="svg_2" class="" fill="#000000" fill-opacity="1"/>
  <path stroke="null" fill="none" stroke-width="0" id="svg_4" d="m14.83125,-7.1375c0,0.0625 0,0.125 0,0.3125c0,0.1875 0,0.3125 0,0.5c0,0.3125 0.06447,0.52575 -0.0625,0.75c-0.04355,0.07692 -0.01466,0.19702 -0.0625,0.3125c-0.03382,0.08166 -0.09334,0.17991 -0.125,0.375c-0.02002,0.12339 0,0.3125 0,0.375c0,0 0,0.0625 0,0.0625c0,0.0625 0,0.125 0,0.25c0,0.1875 0.02291,0.2514 0,0.4375c-0.03149,0.25576 -0.09372,0.49805 -0.125,1.25c-0.01299,0.31223 0,0.75 0,1.4375c0,1.0625 0.03101,1.6886 0,2.125c-0.03133,0.44083 -0.125,1.125 -0.125,1.25c0,0.4375 -0.03673,0.75106 -0.0625,1.0625c-0.03136,0.37888 -0.125,0.5 -0.125,0.5625l-0.0625,0l-0.125,-0.0625"/>
  <text stroke="null" fill="#000000" stroke-width="0" x="3.79825" y="21.71417" id="svg_6" font-size="24" font-family="sans-serif" text-anchor="start" xml:space="preserve" transform="rotate(179.6719970703125 135.6144561767578,-27.309289932250977) matrix(1.10325,0,0,0.982687,-1.67738,3.52971) ">&lt;</text>
  <path stroke="null" fill="none" stroke-width="0" id="svg_8" d="m16.44993,34.17456c0,-0.49999 0,-0.99998 0,-0.99998c0,-0.99998 -0.12156,-1.9559 -0.25,-2.49996c-0.11487,-0.48662 0,-1.24998 0,-1.74997c0,-0.49999 0,-0.74999 0,-0.74999c0,-0.25 0,-0.49999 0,-0.74999l0,-0.25"/>
  <ellipse stroke="null" rx="0.0625" id="svg_3" cy="1.9750200510025024" cx="63.099971771240234" stroke-width="0" fill="#000000"/>
  <path stroke="url(#svg_12)" id="svg_14" d="m-36.663954343938826,0.5307478138136735 l0.14228000000000005,-0.40843104889512066 l0.3725000000000001,-0.2524211436975003 l0.46044,0 l0.3725000000000001,0.2524211436975003 l0.14228000000000005,0.40843104889512066 l-0.14228000000000005,0.40843104889512066 l-0.3725000000000001,0.2524211436975003 l-0.46044,0 l-0.3725000000000001,-0.2524211436975003 l-0.14228000000000005,-0.40843104889512066 z" stroke-width="0" fill="#000000" class=""/>
  <path stroke="null" id="svg_27" d="m34.74520574546814,9.711244343938828 l-6.54764,-5.49526 l4.31214,0 l6.54764,5.49526 l-6.54764,5.49526 l-4.31214,0 l6.54764,-5.49526 z" stroke-width="0" fill="#000000" class="" fill-opacity="1"/>
  <path transform="rotate(-178.98199462890625 6.8674654960632315,9.439526557922363) " stroke="null" style="vector-effect: non-scaling-stroke;" id="svg_29" d="m8.054115656061173,9.43952737575531 l-6.95124,-5.46707 l4.57794,0 l6.95124,5.46707 l-6.95124,5.46706 l-4.57794,0 l6.95124,-5.46706 z" class="" fill="#000000" fill-opacity="1"/>
  <path stroke="null" stroke-width="42" id="svg_41" d="m8.59857,-6.50732l0,0c0,-0.41145 0.33355,-0.745 0.745,-0.745l0,0c0.19759,0 0.38708,0.07849 0.52679,0.21821c0.13971,0.13971 0.21821,0.32921 0.21821,0.52679l0,0c0,0.41145 -0.33355,0.745 -0.745,0.745l0,0c-0.41145,0 -0.745,-0.33355 -0.745,-0.745zm0.745,-0.745l0,1.49m-0.745,-0.745l1.49,0" fill="none" class=""/>
  <path stroke="null" id="svg_43" d="m6.58187,-1.08793l-0.42374,0.42371l0.42374,0.42371l-0.24216,0.24229l-0.6659,-0.66601l0.6659,-0.66606" fill="none"/>
 </g>

</svg>